<?xml version="1.0" encoding="UTF-8"?>
<svg width="492px" height="162px" viewBox="0 0 492 162" version="1.1" xmlns="http://www.w3.org/2000/svg" xmlns:xlink="http://www.w3.org/1999/xlink" style="background: #FFFFFF;">
    <!-- Generator: Sketch 47.1 (45422) - http://www.bohemiancoding.com/sketch -->
    <title>Logo Copy</title>
    <desc>Created with Sketch.</desc>
    <defs>
        <path d="M148.297945,38 L171.21875,0.6484375 L692.621094,6.43359375 L693.132951,38 L706,38 L706,402 L-2.84217094e-14,402 L-2.84217094e-14,38 L148.297945,38 Z M313.676465,38 L300.740038,25.0635731 L287.803611,38 L313.676465,38 Z M148.297945,38 L113.375,94.9101562 L10.6961319,197.589024 L69.4553593,256.348252 L287.803611,38 L148.297945,38 Z M693.132951,38 L313.676465,38 L352.469419,76.792954 L81.56499,347.697383 L175.067066,347.697383 L449.024847,73.7396025 L506.038873,73.7396025 L214.298061,365.480414 L349.697964,365.480414 L595.218429,119.959949 L625.43976,119.959949 L371.316264,374.083445 L451.961259,374.083445 L658.148106,167.896598 L692.505309,167.896598 C532.5,167.896598 675.099336,150.490625 675.099336,150.490625 L675.099336,187.885827 L478.85951,384.125654 L698.355469,360.074219 L693.132951,38 Z" id="path-1"></path>
        <path d="M103.375,94.9101562 L0.696131878,197.589024 L59.4553593,256.348252 L290.740038,25.0635731 L342.469419,76.792954 L71.56499,347.697383 L165.067066,347.697383 L439.024847,73.7396025 L496.038873,73.7396025 L204.298061,365.480414 L339.697964,365.480414 L585.218429,119.959949 L615.43976,119.959949 L361.316264,374.083445 L441.961259,374.083445 L648.148106,167.896598 L682.505309,167.896598 C522.5,167.896598 665.099336,150.490625 665.099336,150.490625 L665.099336,187.885827 L468.85951,384.125654 L688.355469,360.074219 L682.621094,6.43359375 L161.21875,0.6484375 L103.375,94.9101562 Z" id="path-3"></path>
    </defs>
    <g id="Main" stroke="none" stroke-width="1" fill="none" fill-rule="evenodd">
        <g id="Logo-Copy">
            <g id="Group" transform="translate(-101.000000, -157.000000)">
                <mask id="mask-2" fill="white">
                    <use xlink:href="#path-1"></use>
                </mask>
                <g id="Mask"></g>
                <g mask="url(#mask-2)" fill="#000000">
                    <g transform="translate(112.000000, 160.000000)">
                        <path d="M2.84217094e-14,53.5234375 L2.84217094e-14,0 L45.9362584,0 C48.2349934,0 50.391448,0.372599691 52.4056336,1.11780395 L31.0894509,22.4339866 L23.5022717,22.4339866 L23.5022717,30.0211658 L4.97379915e-14,53.5234375 Z" id="Combined-Shape"></path>
                        <path d="M1,149.491626 L1,1 L46.9362584,1 C52.2064911,1 56.7288527,2.95850306 60.5034788,6.87556793 C64.278105,10.7926328 66.1653898,15.5998676 66.1653898,21.2974165 L66.1653898,129.194209 C66.1653898,134.891758 64.278105,139.698993 60.5034788,143.616058 C56.7288527,147.533123 52.2064911,149.491626 46.9362584,149.491626 L1,149.491626 Z M42.663118,127.057639 L42.663118,23.4339866 L24.5022717,23.4339866 L24.5022717,127.057639 L42.663118,127.057639 Z" id="Combined-Shape"></path>
                        <path d="M83.257951,149.491626 L83.257951,21.2974165 C83.257951,15.5998676 85.1452358,10.7926328 88.9198619,6.87556793 C92.6944881,2.95850306 97.2168497,1 102.487082,1 L129.194209,1 C134.464442,1 138.986804,2.95850306 142.76143,6.87556793 C146.536056,10.7926328 148.423341,15.5998676 148.423341,21.2974165 L148.423341,149.491626 L124.921069,149.491626 L124.921069,86.4628062 L106.760223,96.0773719 L106.760223,149.491626 L83.257951,149.491626 Z" id="Path"></path>
                        <polygon id="Path" points="106.760223 69.797559 124.921069 60.1829933 124.921069 23.4339866 106.760223 23.4339866"></polygon>
                        <path d="M189.018174,149.491626 L165.515902,149.491626 L165.515902,1 L189.018174,1 L189.018174,11.8965078 C189.872806,10.0448044 191.012299,8.33556537 192.436686,6.76873942 C196.282531,2.92289391 200.840502,1 206.110735,1 L211.45216,1 C216.722393,1 221.244755,2.95850306 225.019381,6.87556793 C228.794007,10.7926328 230.681292,15.5998676 230.681292,21.2974165 L230.681292,149.491626 L207.17902,149.491626 L207.17902,23.4339866 L189.018174,23.4339866 L189.018174,149.491626 Z" id="Path"></path>
                        <path d="M267.002984,149.491626 C261.732752,149.491626 257.21039,147.497514 253.435764,143.509229 C249.661138,139.520945 247.773853,134.74932 247.773853,129.194209 L247.773853,21.2974165 C247.773853,15.5998676 249.661138,10.7926328 253.435764,6.87556793 C257.21039,2.95850306 261.732752,1 267.002984,1 L293.710111,1 C298.980344,1 303.502706,2.95850306 307.277332,6.87556793 C311.051958,10.7926328 312.939243,15.5998676 312.939243,21.2974165 L312.939243,37.7490067 L289.436971,50.1411136 L289.436971,23.4339866 L271.276125,23.4339866 L271.276125,127.057639 L289.436971,127.057639 L289.436971,90.0949755 L279.822405,95.0090869 L279.822405,68.7292739 L312.939243,51.6367127 L312.939243,149.491626 L267.002984,149.491626 Z" id="Path"></path>
                        <path d="M386.650913,23.4339866 L353.534076,23.4339866 L353.534076,63.3878486 L386.650913,46.2952873 L386.650913,72.5751002 L353.534076,89.6676615 L353.534076,127.057639 L386.650913,127.057639 L386.650913,149.491626 L330.031804,149.491626 L330.031804,21.2974165 C330.031804,15.5998676 331.919089,10.7926328 335.693715,6.87556793 C339.468341,2.95850306 343.990703,1 349.260935,1 L386.650913,1 L386.650913,23.4339866 Z" id="Path"></path>
                        <path d="M455.021158,149.491626 L430.450601,93.9408018 L425.109176,96.718343 L425.109176,149.491626 L401.606904,149.491626 L401.606904,1 L447.543163,1 C452.813395,1 457.335757,2.95850306 461.110383,6.87556793 C464.885009,10.7926328 466.772294,15.5998676 466.772294,21.2974165 L466.772294,75.3526414 L451.175332,83.257951 L480.66,149.491626 L455.021158,149.491626 Z" id="Path"></path>
                        <polygon id="Path" points="443.270022 60.8239644 443.270022 23.4339866 425.109176 23.4339866 425.109176 70.4385301"></polygon>
                    </g>
                </g>
            </g>
            <g id="Group" transform="translate(-95.000000, -153.000000)">
                <mask id="mask-4" fill="white">
                    <use xlink:href="#path-3"></use>
                </mask>
                <g id="Mask"></g>
                <g mask="url(#mask-4)" fill="#000000">
                    <g transform="translate(103.000000, 161.000000)">
                        <path d="M-5.68434189e-14,148.491626 L-5.68434189e-14,0 L45.9362584,0 C51.2064911,0 55.7288527,1.95850306 59.5034788,5.87556793 C63.278105,9.7926328 65.1653898,14.5998676 65.1653898,20.2974165 L65.1653898,128.194209 C65.1653898,133.891758 63.278105,138.698993 59.5034788,142.616058 C55.7288527,146.533123 51.2064911,148.491626 45.9362584,148.491626 L-5.68434189e-14,148.491626 Z M41.663118,126.057639 L41.663118,22.4339866 L23.5022717,22.4339866 L23.5022717,126.057639 L41.663118,126.057639 Z" id="Combined-Shape"></path>
                        <path d="M82.257951,148.491626 L82.257951,20.2974165 C82.257951,14.5998676 84.1452358,9.7926328 87.9198619,5.87556793 C91.6944881,1.95850306 96.2168497,0 101.487082,0 L128.194209,0 C133.464442,0 137.986804,1.95850306 141.76143,5.87556793 C145.536056,9.7926328 147.423341,14.5998676 147.423341,20.2974165 L147.423341,148.491626 L123.921069,148.491626 L123.921069,85.4628062 L105.760223,95.0773719 L105.760223,148.491626 L82.257951,148.491626 Z" id="Path"></path>
                        <polygon id="Path" points="105.760223 68.797559 123.921069 59.1829933 123.921069 22.4339866 105.760223 22.4339866"></polygon>
                        <path d="M188.018174,148.491626 L164.515902,148.491626 L164.515902,0 L188.018174,0 L188.018174,10.8965078 C188.872806,9.0448044 190.012299,7.33556537 191.436686,5.76873942 C195.282531,1.92289391 199.840502,0 205.110735,0 L210.45216,0 C215.722393,0 220.244755,1.95850306 224.019381,5.87556793 C227.794007,9.7926328 229.681292,14.5998676 229.681292,20.2974165 L229.681292,148.491626 L206.17902,148.491626 L206.17902,22.4339866 L188.018174,22.4339866 L188.018174,148.491626 Z" id="Path"></path>
                        <path d="M266.002984,148.491626 C260.732752,148.491626 256.21039,146.497514 252.435764,142.509229 C248.661138,138.520945 246.773853,133.74932 246.773853,128.194209 L246.773853,20.2974165 C246.773853,14.5998676 248.661138,9.7926328 252.435764,5.87556793 C256.21039,1.95850306 260.732752,0 266.002984,0 L292.710111,0 C297.980344,0 302.502706,1.95850306 306.277332,5.87556793 C310.051958,9.7926328 311.939243,14.5998676 311.939243,20.2974165 L311.939243,36.7490067 L288.436971,49.1411136 L288.436971,22.4339866 L270.276125,22.4339866 L270.276125,126.057639 L288.436971,126.057639 L288.436971,89.0949755 L278.822405,94.0090869 L278.822405,67.7292739 L311.939243,50.6367127 L311.939243,148.491626 L266.002984,148.491626 Z" id="Path"></path>
                        <path d="M385.650913,22.4339866 L352.534076,22.4339866 L352.534076,62.3878486 L385.650913,45.2952873 L385.650913,71.5751002 L352.534076,88.6676615 L352.534076,126.057639 L385.650913,126.057639 L385.650913,148.491626 L329.031804,148.491626 L329.031804,20.2974165 C329.031804,14.5998676 330.919089,9.7926328 334.693715,5.87556793 C338.468341,1.95850306 342.990703,0 348.260935,0 L385.650913,0 L385.650913,22.4339866 Z" id="Path"></path>
                        <path d="M454.021158,148.491626 L429.450601,92.9408018 L424.109176,95.718343 L424.109176,148.491626 L400.606904,148.491626 L400.606904,0 L446.543163,0 C451.813395,0 456.335757,1.95850306 460.110383,5.87556793 C463.885009,9.7926328 465.772294,14.5998676 465.772294,20.2974165 L465.772294,74.3526414 L450.175332,82.257951 L479.66,148.491626 L454.021158,148.491626 Z" id="Path"></path>
                        <polygon id="Path" points="442.270022 59.8239644 442.270022 22.4339866 424.109176 22.4339866 424.109176 69.4385301"></polygon>
                    </g>
                </g>
            </g>
        </g>
    </g>
</svg>